<svg width="80" height="80" viewBox="0 0 80 80" fill="none" xmlns="http://www.w3.org/2000/svg">
<path d="M22.5415 45.6348C22.5415 43.9403 23.8946 42.5662 25.564 42.5662H31.1013C32.7706 42.5662 34.1238 43.9399 34.1238 45.6348C34.1238 47.3297 32.7706 48.7034 31.1013 48.7034H25.564C23.895 48.7034 22.5415 47.3297 22.5415 45.6348Z" fill="#00B4EC"/>
<path d="M8.04193 22C10.2742 22 12.0839 23.8373 12.0839 26.1037C12.0839 28.3701 10.2742 30.2074 8.04193 30.2074C5.80968 30.2074 4 28.3701 4 26.1037C4 23.8373 5.80968 22 8.04193 22Z" fill="#00B4EC"/>
<path d="M57.5277 22.0116C67.1125 22.073 74.8639 29.981 74.8639 39.7271C74.8639 47.1447 70.3745 53.4906 64.015 56.1307C60.2497 57.6935 55.3939 57.4426 54.0143 57.4426V57.2371C54.0143 54.0622 56.5798 51.7452 59.6627 51.2094C60.4134 51.079 61.1407 50.8904 61.7953 50.6187C66.0266 48.8624 68.9993 44.6431 68.9993 39.7267C68.9993 33.2567 63.8533 28.0068 57.4902 27.9655H57.415H55.1397H52.3062C51.8571 27.9655 51.4927 28.3351 51.4927 28.7915V51.0084C51.4927 54.5313 48.6797 57.3872 45.2098 57.3872C42.7095 57.3872 40.4472 55.8818 39.4491 53.5545L28.8124 28.7449C28.6365 28.3347 28.0637 28.3335 27.8858 28.7433L17.1183 53.5838C16.1162 55.8951 13.8638 57.3872 11.3762 57.3872C7.90783 57.3872 5.09765 54.5301 5.10279 51.0088L5.12809 33.3354C8.35452 33.3354 10.9738 35.9838 10.9868 39.2592L11.0311 50.1182C11.0335 50.6736 11.7822 50.8302 12.0004 50.3205L22.4315 25.9648C23.4391 23.6122 25.7255 22.0899 28.2527 22.0899C30.7798 22.0899 33.033 23.5889 34.0525 25.9147L44.72 50.2567C44.9422 50.7631 45.6873 50.6022 45.6873 50.048V28.3765C45.6873 24.8611 48.4943 22.0112 51.9568 22.0112H54.5958H57.4146H57.5277V22.0116Z" fill="#00B4EC"/>
</svg>
